<?xml version="1.0" encoding="utf-8"?>
<!-- Generator: Adobe Illustrator 24.1.0, SVG Export Plug-In . SVG Version: 6.00 Build 0)  -->
<svg version="1.1" id="Layer_1" xmlns="http://www.w3.org/2000/svg" xmlns:xlink="http://www.w3.org/1999/xlink" x="0px" y="0px"
	 viewBox="0 0 72 72" style="enable-background:new 0 0 72 72;" xml:space="preserve">
<style type="text/css">
	.st0{fill-rule:evenodd;clip-rule:evenodd;fill:#FFFFFF;}
</style>
<g>
	<path class="st0" d="M40.5,22.8h28.1c1,0,1.6,0.5,1.6,1.6v6.3c0,1-0.5,1.6-1.6,1.6H40.5c-6.8,0-8.3,2.1-8.3,8.3v1h23.4
		c1,0,1.6,0.5,1.6,1.6v5.2c0,1-0.5,1.6-1.6,1.6H32.2v16.7c0,1-0.5,1.6-1.6,1.6h-6.8c-1,0-1.6-0.5-1.6-1.6v-26
		C22.3,27.5,27.5,22.8,40.5,22.8L40.5,22.8z M15.5,28c-0.5,1-0.5,2.6-0.5,4.7l5.2,27.1L9.3,40c-2.1-3.6-1-7.8,2.6-9.9L15.5,28z
		 M56.1,12.9L56.1,12.9l1.6,2.6l-31.3,6.3l19.8-11.5C49.4,8.3,54.1,9.3,56.1,12.9z M5.6,41.6l13,22.4v0.5l-12-7.3
		c-4.2-2.6-5.2-7.3-3.1-11.5C3,45.8,5.6,41.6,5.6,41.6z M36.3,5.6L36.3,5.6l4.2,2.6L21.2,19.2c-1.6,0.5-2.6,1-3.6,2.1l0,0l7.3-12.5
		C27,4.6,32.2,3.6,36.3,5.6z"/>
</g>
</svg>
